<?xml version="1.0" encoding="utf-8"?>
<svg
   xmlns="http://www.w3.org/2000/svg"
   viewBox="0 0 24 24"
   fill="none"
   fill-rule="evenodd"
   clip-rule="evenodd">
  <style type="text/css">
     .st-vs {stroke:#EBEBEB;stroke-width:2;stroke-linecap:round;stroke-linejoin:round;}
     .st-red {stroke:#ff6c28;}
  </style>
  <rect width="24" height="24"/>
  <path
     class="st-vs st-red"
     d="M12 18.5c-0.552,0 -1,0.448 -1,1 0,0.552 0.448,1 1,1 0.552,0 1,-0.448 1,-1 0,-0.552 -0.448,-1 -1,-1zm4.094 -3.39c-0.274,-0.256 -0.566,-0.481 -0.872,-0.676m-4.981 -0.675c-0.847,0.259 -1.648,0.709 -2.335,1.351m11.597 -3.656c-0.226,-0.212 -0.46,-0.412 -0.7,-0.601m-3.735 -1.921c-3.611,-1.045 -7.652,-0.205 -10.571,2.522m18.414 -3.655c-0.182,-0.171 -0.368,-0.336 -0.557,-0.497m-3.428 -2.229c-5.792,-2.781 -12.912,-1.873 -17.837,2.726m20.286 -5.175l-18.75 18.752"/>
</svg>
