<?xml version="1.0" encoding="utf-8"?>
<svg
   xmlns="http://www.w3.org/2000/svg"
   viewBox="0 0 24 24"
   fill="none"
   fill-rule="evenodd"
   clip-rule="evenodd">
  <style type="text/css">
     .st-vs {stroke:#EBEBEB;stroke-width:2;stroke-linecap:round;stroke-linejoin:round;}
  </style>
  <rect width="24" height="24"/>
  <path
     class="st-vs"
     d="M6.434 7.104l-4.56 0.804 -0.804 -4.56m0.099 10.562c1.054,5.982 6.759,9.975 12.74,8.92 5.982,-1.055 9.977,-6.758 8.922,-12.74 -1.055,-5.981 -6.759,-9.976 -12.741,-8.921 -3.388,0.597 -6.137,2.687 -7.695,5.472"/>
  <path
     class="st-vs"
     d="M11.228 8.238l4.412 2.451c0.489,0.272 0.771,0.752 0.771,1.311 0,0.559 -0.282,1.039 -0.771,1.311l-4.412 2.451c-1.003,0.557 -2.228,-0.164 -2.228,-1.311l0 -4.902c0,-1.147 1.225,-1.868 2.228,-1.311z"/>
</svg>
